<svg id="Layer_1" data-name="Layer 1" xmlns="http://www.w3.org/2000/svg" xmlns:xlink="http://www.w3.org/1999/xlink" viewBox="0 0 1080 1080"><defs><style>.cls-1{fill:url(#linear-gradient);}.cls-2{fill:url(#linear-gradient-2);}.cls-3{fill:url(#linear-gradient-3);}.cls-4{fill:url(#linear-gradient-4);}.cls-5{opacity:0.3;fill:url(#linear-gradient-5);}.cls-6{opacity:0.4;fill:url(#linear-gradient-6);}</style><linearGradient id="linear-gradient" x1="82.86" y1="752.44" x2="650.95" y2="1127.27" gradientUnits="userSpaceOnUse"><stop offset="0" stop-color="#416ce1"/><stop offset="0.47" stop-color="#5749c8"/><stop offset="1" stop-color="#7d19aa"/></linearGradient><linearGradient id="linear-gradient-2" x1="175.56" y1="593.13" x2="978.91" y2="944.11" gradientUnits="userSpaceOnUse"><stop offset="0" stop-color="#01f4f5"/><stop offset="0.37" stop-color="#416ce1"/><stop offset="0.67" stop-color="#5749c8"/><stop offset="1" stop-color="#7d19aa"/></linearGradient><linearGradient id="linear-gradient-3" x1="203.65" y1="320.5" x2="1061.96" y2="859.27" gradientUnits="userSpaceOnUse"><stop offset="0" stop-color="#01f4f5"/><stop offset="0.38" stop-color="#416ce1"/><stop offset="0.47" stop-color="#5749c8"/><stop offset="0.88" stop-color="#7d19aa"/></linearGradient><linearGradient id="linear-gradient-4" x1="7.8" y1="120.21" x2="1435.26" y2="956.74" xlink:href="#linear-gradient-2"/><linearGradient id="linear-gradient-5" x1="345.21" y1="441.01" x2="1230.94" y2="17.89" gradientUnits="userSpaceOnUse"><stop offset="0" stop-color="#01f4f5"/><stop offset="0.3" stop-color="#416ce1"/><stop offset="0.66" stop-color="#7523b0"/></linearGradient><linearGradient id="linear-gradient-6" x1="118.41" y1="272.46" x2="1036.67" y2="-66.94" gradientUnits="userSpaceOnUse"><stop offset="0.01" stop-color="#63fff5"/><stop offset="0.68" stop-color="#416ce1"/></linearGradient></defs><path class="cls-1" d="M502.65,992H218.17l-31-31a40.82,40.82,0,0,1-6.55-11.3,40,40,0,0,1,0-28.48,40.82,40.82,0,0,1,6.55-11.3l144-144L518.62,953.44C532.84,967.67,522.77,992,502.65,992Z"/><path class="cls-2" d="M954.57,992h-275a22.61,22.61,0,0,1-16-6.62L460.16,782a22.62,22.62,0,0,1,0-32L597.68,612.49a22.62,22.62,0,0,1,32,0l340.9,340.9C984.81,967.64,974.72,992,954.57,992Z"/><path class="cls-3" d="M954.64,88c20.13,0,30.2,24.33,16,38.56l-778,778a39.1,39.1,0,0,0-5.42,5.42,40.82,40.82,0,0,0-6.55,11.3,40,40,0,0,0,0,28.48,40.82,40.82,0,0,0,6.55,11.3,39.1,39.1,0,0,0,5.42,5.42l25,25a.32.32,0,0,1-.22.55H161.67a56.49,56.49,0,0,1-56.5-56.5V662.36a22.6,22.6,0,0,1,6.62-16L663.56,94.62a22.56,22.56,0,0,1,16-6.62Z"/><path class="cls-4" d="M517.54,131.19,145.41,503.31c-15.75,15.76-42.69,4.6-42.69-17.68V113.5a25,25,0,0,1,25-25H499.86C522.13,88.5,533.29,115.43,517.54,131.19Z"/><path class="cls-5" d="M954.64,88H679.53a22.56,22.56,0,0,0-16,6.62L299.33,458.85A438.43,438.43,0,0,0,542.5,532q11.71,0,23.28-.61L970.62,126.56C984.84,112.33,974.77,88,954.64,88Z"/><path class="cls-6" d="M499.86,88.5H127.73a25,25,0,0,0-25,25v3.32A439.28,439.28,0,0,0,238.47,410.26L517.54,131.19C533.29,115.43,522.13,88.5,499.86,88.5Z"/></svg>