<svg id="Layer_1" data-name="Layer 1" xmlns="http://www.w3.org/2000/svg" xmlns:xlink="http://www.w3.org/1999/xlink" viewBox="0 0 1920 1080"><defs><style>.cls-1{fill:url(#linear-gradient);}.cls-2{fill:url(#linear-gradient-2);}.cls-3{fill:url(#linear-gradient-3);}.cls-4{fill:url(#linear-gradient-4);}.cls-5{opacity:0.3;fill:url(#linear-gradient-5);}.cls-6{opacity:0.4;fill:url(#linear-gradient-6);}.cls-7{fill:#fff;}</style><linearGradient id="linear-gradient" x1="91.29" y1="627.7" x2="325.82" y2="782.44" gradientUnits="userSpaceOnUse"><stop offset="0" stop-color="#416ce1"/><stop offset="0.47" stop-color="#5749c8"/><stop offset="1" stop-color="#7d19aa"/></linearGradient><linearGradient id="linear-gradient-2" x1="129.56" y1="561.93" x2="461.21" y2="706.83" gradientUnits="userSpaceOnUse"><stop offset="0" stop-color="#01f4f5"/><stop offset="0.37" stop-color="#416ce1"/><stop offset="0.67" stop-color="#5749c8"/><stop offset="1" stop-color="#7d19aa"/></linearGradient><linearGradient id="linear-gradient-3" x1="141.16" y1="449.38" x2="495.5" y2="671.81" gradientUnits="userSpaceOnUse"><stop offset="0" stop-color="#01f4f5"/><stop offset="0.38" stop-color="#416ce1"/><stop offset="0.47" stop-color="#5749c8"/><stop offset="0.88" stop-color="#7d19aa"/></linearGradient><linearGradient id="linear-gradient-4" x1="60.31" y1="366.7" x2="649.61" y2="712.04" xlink:href="#linear-gradient-2"/><linearGradient id="linear-gradient-5" x1="199.6" y1="499.13" x2="565.26" y2="324.45" gradientUnits="userSpaceOnUse"><stop offset="0" stop-color="#01f4f5"/><stop offset="0.3" stop-color="#416ce1"/><stop offset="0.66" stop-color="#7523b0"/></linearGradient><linearGradient id="linear-gradient-6" x1="105.97" y1="429.55" x2="485.06" y2="289.43" gradientUnits="userSpaceOnUse"><stop offset="0.01" stop-color="#63fff5"/><stop offset="0.68" stop-color="#416ce1"/></linearGradient></defs><path class="cls-1" d="M264.6,726.6H147.16l-12.79-12.78a17,17,0,0,1-2.7-4.67,16.52,16.52,0,0,1,0-11.75,17,17,0,0,1,2.7-4.67l59.44-59.43,77.38,77.38A9.33,9.33,0,0,1,264.6,726.6Z"/><path class="cls-2" d="M451.17,726.6H337.63a9.35,9.35,0,0,1-6.61-2.73l-84-84a9.32,9.32,0,0,1,0-13.2l56.77-56.77a9.32,9.32,0,0,1,13.2,0L457.77,710.66A9.34,9.34,0,0,1,451.17,726.6Z"/><path class="cls-3" d="M451.2,353.4a9.33,9.33,0,0,1,6.59,15.92L136.61,690.49a16.35,16.35,0,0,0-2.24,2.24,17,17,0,0,0-2.7,4.67,16.52,16.52,0,0,0,0,11.75,17,17,0,0,0,2.7,4.67,16.35,16.35,0,0,0,2.24,2.24l10.32,10.31a.13.13,0,0,1-.09.23h-23a23.32,23.32,0,0,1-23.32-23.32V590.51a9.32,9.32,0,0,1,2.73-6.59L331,356.13a9.32,9.32,0,0,1,6.59-2.73Z"/><path class="cls-4" d="M270.75,371.23,117.12,524.86a10.32,10.32,0,0,1-17.62-7.3V363.93a10.32,10.32,0,0,1,10.32-10.32H263.45A10.32,10.32,0,0,1,270.75,371.23Z"/><path class="cls-5" d="M451.2,353.4H337.62a9.32,9.32,0,0,0-6.59,2.73L180.66,506.5a181,181,0,0,0,100.39,30.2c3.22,0,6.43-.09,9.61-.25L457.79,369.32A9.33,9.33,0,0,0,451.2,353.4Z"/><path class="cls-6" d="M263.45,353.61H109.82A10.32,10.32,0,0,0,99.5,363.93v1.37a181.3,181.3,0,0,0,56,121.14L270.75,371.23A10.32,10.32,0,0,0,263.45,353.61Z"/><path class="cls-7" d="M676.78,543.9l-49.3,45v48.15H592.67V441.81h34.81V541.7l28.65-26.22L682,491.81l54.52-49.89h51.63l-85.62,78.31M716,538.73l71.28,98.33h-43l-53.77-74.32"/><path class="cls-7" d="M967.38,539.72a97.63,97.63,0,1,1-97.63-97.63A97.63,97.63,0,0,1,967.38,539.72Zm-34.8,0a62.83,62.83,0,1,0-62.83,62.83A62.9,62.9,0,0,0,932.58,539.71Z"/><path class="cls-7" d="M1023.21,442.1h62.88a97.57,97.57,0,0,1,97.57,97.57,96.4,96.4,0,0,1-23.09,62.88c-1.74,2.09-3.59,4.18-5.57,6.15a96.77,96.77,0,0,1-68.91,28.66h-62.88m-34.45-34.81h97.33a62.82,62.82,0,0,0,0-125.64H988.76"/><polygon class="cls-7" points="1215.49 511.92 1215.49 637.36 1250.33 637.36 1250.33 477.08 1215.49 511.92"/><polygon class="cls-7" points="1215.49 442.09 1215.49 476.83 1250.23 442.09 1215.49 442.09"/><path class="cls-7" d="M1469.71,442.05v34.8H1327.12a18,18,0,0,0-17.86,18v18.1H1434.9v34.8H1309.14V637.3h-34.69V494.83a52.73,52.73,0,0,1,52.67-52.78Z"/><path class="cls-7" d="M1658.86,602.49V637.3h-99a61.75,61.75,0,0,1-27.38-6.38,62.9,62.9,0,0,1-34.81-55.81V442.05h34.81V578.59a27.8,27.8,0,0,0,23.9,23.9Z"/><path class="cls-7" d="M1690.47,526.22l-65.22-84.52h44l39.72,51.47m14,18.14,53.71-69.61h43.85v.11l-75.64,97.92-.11.12-4.18,5.33V637.3h-34.92V545.76Zm-97.69,125.87h.47l-.47.58Zm194.91,0h.34v.47Z"/></svg>